<svg width="512" height="512" viewBox="0 0 512 512" fill="none" xmlns="http://www.w3.org/2000/svg">
  <defs>
    <!-- Vibrant Blue/Purple Gradient -->
    <linearGradient id="bladeGradient" x1="100" y1="100" x2="400" y2="400" gradientUnits="userSpaceOnUse">
      <stop offset="0%" stop-color="#0ea5e9" />  <!-- Sky Blue -->
      <stop offset="50%" stop-color="#8b5cf6" /> <!-- Violet -->
      <stop offset="100%" stop-color="#ec4899" /> <!-- Pink/Magenta -->
    </linearGradient>
    
    <!-- Glow effect for the center -->
    <filter id="centerGlow" x="-50%" y="-50%" width="200%" height="200%">
      <feGaussianBlur stdDeviation="15" result="blur"/>
      <feComposite in="SourceGraphic" in2="blur" operator="over"/>
    </filter>
  </defs>

  <!-- Group centered -->
  <g transform="translate(256 256)">
    
    <!-- 8-blade Geometric Aperture -->
    <g class="aperture-panels" stroke="none"> 
      <path d="M0,-60 L130,-160 L180,-40 Z" fill="url(#bladeGradient)" opacity="0.9" transform="rotate(0)" />
      <path d="M0,-60 L130,-160 L180,-40 Z" fill="url(#bladeGradient)" opacity="0.9" transform="rotate(45)" />
      <path d="M0,-60 L130,-160 L180,-40 Z" fill="url(#bladeGradient)" opacity="0.9" transform="rotate(90)" />
      <path d="M0,-60 L130,-160 L180,-40 Z" fill="url(#bladeGradient)" opacity="0.9" transform="rotate(135)" />
      <path d="M0,-60 L130,-160 L180,-40 Z" fill="url(#bladeGradient)" opacity="0.9" transform="rotate(180)" />
      <path d="M0,-60 L130,-160 L180,-40 Z" fill="url(#bladeGradient)" opacity="0.9" transform="rotate(225)" />
      <path d="M0,-60 L130,-160 L180,-40 Z" fill="url(#bladeGradient)" opacity="0.9" transform="rotate(270)" />
      <path d="M0,-60 L130,-160 L180,-40 Z" fill="url(#bladeGradient)" opacity="0.9" transform="rotate(315)" />
    </g>
    
  </g>
  
  <!-- Central Pupil -->
  <g class="hero-pupil">
    <circle cx="256" cy="256" r="60" fill="url(#bladeGradient)" opacity="0.3" filter="url(#centerGlow)" />
    <circle cx="256" cy="256" r="24" fill="url(#bladeGradient)" />
  </g>
  
</svg>
