<svg width="512" height="512" viewBox="0 0 512 512" fill="none" xmlns="http://www.w3.org/2000/svg">
  <defs>
    <!-- Vibrant Blue/Purple Gradient -->
    <linearGradient id="bladeGradient" x1="100" y1="100" x2="400" y2="400" gradientUnits="userSpaceOnUse">
      <stop offset="0%" stop-color="#0ea5e9" />  <!-- Sky Blue -->
      <stop offset="50%" stop-color="#8b5cf6" /> <!-- Violet -->
      <stop offset="100%" stop-color="#ec4899" /> <!-- Pink/Magenta -->
    </linearGradient>
    
    <!-- Glow effect for the center -->
    <filter id="centerGlow" x="-50%" y="-50%" width="200%" height="200%">
      <feGaussianBlur stdDeviation="15" result="blur"/>
      <feComposite in="SourceGraphic" in2="blur" operator="over"/>
    </filter>
  </defs>

  <!-- Group centered and scaled up by 25% -->
  <g transform="translate(256 256) scale(1.25)">
    
    <!-- 8-blade Geometric Aperture -->
    <g class="aperture-panels" stroke="none"> 
      <path d="M0,-60 L130,-160 L180,-40 Z" fill="url(#bladeGradient)" opacity="0.9" transform="rotate(0)" />
      <path d="M0,-60 L130,-160 L180,-40 Z" fill="url(#bladeGradient)" opacity="0.9" transform="rotate(45)" />
      <path d="M0,-60 L130,-160 L180,-40 Z" fill="url(#bladeGradient)" opacity="0.9" transform="rotate(90)" />
      <path d="M0,-60 L130,-160 L180,-40 Z" fill="url(#bladeGradient)" opacity="0.9" transform="rotate(135)" />
      <path d="M0,-60 L130,-160 L180,-40 Z" fill="url(#bladeGradient)" opacity="0.9" transform="rotate(180)" />
      <path d="M0,-60 L130,-160 L180,-40 Z" fill="url(#bladeGradient)" opacity="0.9" transform="rotate(225)" />
      <path d="M0,-60 L130,-160 L180,-40 Z" fill="url(#bladeGradient)" opacity="0.9" transform="rotate(270)" />
      <path d="M0,-60 L130,-160 L180,-40 Z" fill="url(#bladeGradient)" opacity="0.9" transform="rotate(315)" />
    </g>
    
  </g>
  
  <!-- Central Pupil (needs to be grouped/transformed similarly or manually adjusted) -->
  <!-- Since the pupil is defined by absolute coordinates cx=256 cy=256, we can just wrap it in a group with the same transform relative to the center -->
  <g transform="translate(256 256) scale(1.25)">
     <!-- Circle coordinates must be 0,0 relative to the group for the scale to work from center -->
     <circle cx="0" cy="0" r="60" fill="url(#bladeGradient)" opacity="0.3" filter="url(#centerGlow)" />
     <circle cx="0" cy="0" r="24" fill="url(#bladeGradient)" />
  </g>
  
</svg>
