<svg xmlns="http://www.w3.org/2000/svg" viewBox="0 0 120 120" width="120" height="120">
  <defs>
    <!-- Gradient for the light rays -->
    <linearGradient id="lightGradient" x1="0%" y1="0%" x2="100%" y2="100%">
      <stop offset="0%" style="stop-color:#818cf8;stop-opacity:1" />
      <stop offset="100%" style="stop-color:#6366f1;stop-opacity:1" />
    </linearGradient>
    <!-- Warm accent gradient -->
    <linearGradient id="accentGradient" x1="0%" y1="0%" x2="100%" y2="0%">
      <stop offset="0%" style="stop-color:#fbbf24;stop-opacity:1" />
      <stop offset="100%" style="stop-color:#f59e0b;stop-opacity:1" />
    </linearGradient>
  </defs>
  
  <!-- Background circle (optional, for favicon use) -->
  <!-- <circle cx="60" cy="60" r="58" fill="#0f172a"/> -->
  
  <!-- Window/View frame - rounded rectangle -->
  <rect x="20" y="25" width="80" height="70" rx="8" ry="8" 
        fill="none" stroke="url(#lightGradient)" stroke-width="4"/>
  
  <!-- Horizon line -->
  <line x1="20" y1="65" x2="100" y2="65" 
        stroke="url(#lightGradient)" stroke-width="2" opacity="0.5"/>
  
  <!-- Sun/Light source - the "light" in Lightview -->
  <circle cx="60" cy="50" r="12" fill="url(#accentGradient)"/>
  
  <!-- Light rays emanating from sun -->
  <g stroke="url(#accentGradient)" stroke-width="2" stroke-linecap="round" opacity="0.8">
    <!-- Top ray -->
    <line x1="60" y1="32" x2="60" y2="26"/>
    <!-- Top-right ray -->
    <line x1="72" y1="38" x2="76" y2="34"/>
    <!-- Right ray -->
    <line x1="78" y1="50" x2="84" y2="50"/>
    <!-- Bottom-right ray -->
    <line x1="72" y1="62" x2="76" y2="66"/>
    <!-- Bottom-left ray -->
    <line x1="48" y1="62" x2="44" y2="66"/>
    <!-- Left ray -->
    <line x1="42" y1="50" x2="36" y2="50"/>
    <!-- Top-left ray -->
    <line x1="48" y1="38" x2="44" y2="34"/>
  </g>
  
  <!-- Stylized "LV" letters subtly integrated -->
  <!-- L shape in bottom left -->
  <path d="M30 75 L30 88 L42 88" 
        fill="none" stroke="url(#lightGradient)" stroke-width="3" stroke-linecap="round" stroke-linejoin="round"/>
  
  <!-- V shape in bottom right -->
  <path d="M70 75 L80 88 L90 75" 
        fill="none" stroke="url(#lightGradient)" stroke-width="3" stroke-linecap="round" stroke-linejoin="round"/>
</svg>
